<svg width="102" height="23" viewBox="0 0 102 23" fill="none" xmlns="http://www.w3.org/2000/svg">
<path d="M35.6525 18.3936V17.9616H35.54L35.4099 18.258L35.2805 17.9616H35.1676V18.3936H35.2475V18.0682L35.3692 18.3489H35.452L35.5737 18.0674V18.3936H35.6529H35.6525ZM34.9389 18.3936V18.0356H35.0829V17.9627H34.715V18.0356H34.859V18.3936H34.9382H34.9389Z" fill="#F79410"/>
<path d="M22.8674 20.2466H13.1331V2.75275H22.8676L22.8674 20.2466Z" fill="#FF5F00"/>
<path d="M13.7503 11.5C13.7503 7.95139 15.4118 4.79027 17.9992 2.7531C16.0407 1.2088 13.6183 0.370656 11.1242 0.374341C4.98034 0.374341 0 5.3554 0 11.5C0 17.6446 4.98034 22.6257 11.1242 22.6257C13.6184 22.6294 16.0408 21.7913 17.9994 20.2469C15.4122 18.2101 13.7503 15.0488 13.7503 11.5Z" fill="#EB001B"/>
<path d="M36 11.5C36 17.6446 31.0197 22.6257 24.8758 22.6257C22.3813 22.6293 19.9586 21.7912 17.9997 20.2469C20.5878 18.2098 22.2494 15.0488 22.2494 11.5C22.2494 7.95121 20.5878 4.79027 17.9997 2.7531C19.9586 1.20885 22.3812 0.37072 24.8756 0.37434C31.0195 0.37434 35.9998 5.3554 35.9998 11.5" fill="#F79E1B"/>
<path d="M52.7198 4.03955H48.3641C48.2199 4.03946 48.0804 4.09087 47.9707 4.18452C47.8611 4.27817 47.7885 4.40791 47.766 4.55035L46.0044 15.7197C45.9963 15.7715 45.9995 15.8245 46.0138 15.8749C46.0282 15.9254 46.0533 15.9721 46.0874 16.012C46.1215 16.0518 46.1639 16.0838 46.2116 16.1056C46.2593 16.1275 46.3111 16.1388 46.3636 16.1387H48.443C48.5873 16.1388 48.7269 16.0873 48.8366 15.9935C48.9462 15.8998 49.0188 15.7699 49.0411 15.6273L49.5162 12.6148C49.5385 12.4723 49.611 12.3425 49.7205 12.2488C49.83 12.155 49.9695 12.1034 50.1136 12.1033H51.4925C54.3618 12.1033 56.0177 10.7149 56.4502 7.96349C56.6451 6.75975 56.4584 5.81396 55.8948 5.15158C55.2757 4.42424 54.1777 4.03955 52.7198 4.03955ZM53.2223 8.1189C52.9841 9.68185 51.79 9.68185 50.6353 9.68185H49.978L50.4391 6.76294C50.4526 6.67754 50.4961 6.59977 50.5619 6.54361C50.6276 6.48745 50.7112 6.45659 50.7977 6.45659H51.0989C51.8855 6.45659 52.6275 6.45659 53.0109 6.90497C53.2395 7.17246 53.3096 7.56989 53.2223 8.1189ZM65.74 8.06858H63.6541C63.5677 8.06858 63.4841 8.09944 63.4183 8.1556C63.3526 8.21176 63.3091 8.28954 63.2956 8.37493L63.2032 8.95833L63.0574 8.74688C62.6058 8.09151 61.5989 7.87242 60.5938 7.87242C58.2889 7.87242 56.3202 9.61816 55.9368 12.067C55.7375 13.2886 56.0209 14.4567 56.7138 15.2713C57.3495 16.0203 58.259 16.3324 59.341 16.3324C61.1982 16.3324 62.2281 15.1382 62.2281 15.1382L62.1351 15.7178C62.1268 15.7696 62.1299 15.8226 62.1441 15.8731C62.1582 15.9236 62.1832 15.9705 62.2172 16.0104C62.2512 16.0504 62.2935 16.0825 62.3411 16.1045C62.3888 16.1266 62.4406 16.138 62.4931 16.1381H64.3719C64.5162 16.1382 64.6558 16.0867 64.7654 15.9929C64.8751 15.8991 64.9476 15.7692 64.97 15.6267L66.0973 8.48766C66.1056 8.43596 66.1026 8.38307 66.0884 8.33265C66.0743 8.28223 66.0494 8.23548 66.0154 8.19564C65.9814 8.15579 65.9392 8.12379 65.8916 8.10186C65.8441 8.07992 65.7924 8.06857 65.74 8.06858ZM62.8325 12.1282C62.6313 13.3198 61.6855 14.1198 60.4792 14.1198C59.8735 14.1198 59.3895 13.9255 59.0786 13.5574C58.7704 13.1918 58.6532 12.6715 58.7513 12.0919C58.9392 10.9104 59.9009 10.0844 61.0887 10.0844C61.681 10.0844 62.1625 10.2812 62.4797 10.6525C62.7975 11.0276 62.9236 11.5512 62.8325 12.1282ZM76.8488 8.06858H74.7528C74.6539 8.06874 74.5566 8.09301 74.4692 8.13929C74.3819 8.18557 74.3072 8.25247 74.2515 8.33417L71.3606 12.5925L70.1352 8.5004C70.0976 8.37559 70.0208 8.26621 69.9162 8.18844C69.8116 8.11067 69.6847 8.06865 69.5544 8.06858H67.4946C67.4368 8.06843 67.3798 8.08209 67.3283 8.10842C67.2769 8.13475 67.2324 8.173 67.1987 8.21998C67.165 8.26695 67.143 8.3213 67.1346 8.3785C67.1261 8.43569 67.1314 8.49408 67.1501 8.54881L69.4588 15.3242L67.2883 18.3883C67.2497 18.4426 67.2268 18.5065 67.2222 18.573C67.2175 18.6394 67.2312 18.7059 67.2618 18.7651C67.2924 18.8243 67.3386 18.8739 67.3956 18.9086C67.4525 18.9432 67.5178 18.9615 67.5845 18.9615H69.6779C69.7757 18.9616 69.872 18.9381 69.9586 18.8928C70.0453 18.8475 70.1196 18.7819 70.1754 18.7016L77.1469 8.63861C77.1847 8.58417 77.2068 8.52042 77.211 8.45428C77.2151 8.38813 77.201 8.32212 77.1703 8.26339C77.1396 8.20467 77.0934 8.15547 77.0368 8.12113C76.9801 8.08679 76.9151 8.06861 76.8488 8.06858Z" fill="#253B80"/>
<path d="M83.7885 4.03915H79.4321C79.288 4.03921 79.1487 4.09069 79.0391 4.18433C78.9296 4.27797 78.8571 4.40761 78.8347 4.54994L77.073 15.7193C77.0648 15.771 77.0679 15.8239 77.0822 15.8743C77.0964 15.9247 77.1214 15.9715 77.1554 16.0113C77.1894 16.0511 77.2316 16.0831 77.2792 16.1051C77.3268 16.127 77.3786 16.1383 77.4309 16.1383H79.6665C79.7673 16.1382 79.8648 16.1021 79.9414 16.0365C80.018 15.9708 80.0686 15.88 80.0843 15.7804L80.5842 12.6144C80.6065 12.4719 80.679 12.3421 80.7885 12.2484C80.8981 12.1546 81.0375 12.103 81.1816 12.1029H82.5599C85.4298 12.1029 87.0851 10.7145 87.5182 7.96309C87.7137 6.75935 87.5258 5.81355 86.9622 5.15118C86.3437 4.42384 85.2463 4.03915 83.7885 4.03915ZM84.291 8.1185C84.0534 9.68145 82.8592 9.68145 81.7039 9.68145H81.0473L81.509 6.76254C81.5223 6.67714 81.5656 6.5993 81.6313 6.54311C81.6969 6.48691 81.7805 6.45608 81.867 6.45619H82.1682C82.9541 6.45619 83.6968 6.45619 84.0802 6.90457C84.3088 7.17206 84.3783 7.56949 84.291 8.1185ZM96.808 8.06818H94.7234C94.637 8.06794 94.5533 8.09873 94.4876 8.15495C94.4219 8.21116 94.3786 8.28908 94.3655 8.37453L94.2731 8.95793L94.1266 8.74648C93.6751 8.09111 92.6688 7.87202 91.6638 7.87202C89.3588 7.87202 87.3908 9.61776 87.0074 12.0666C86.8087 13.2882 87.0908 14.4563 87.7838 15.2709C88.4207 16.0199 89.3289 16.332 90.411 16.332C92.2682 16.332 93.298 15.1378 93.298 15.1378L93.2051 15.7174C93.1968 15.7693 93.1998 15.8224 93.2141 15.873C93.2283 15.9236 93.2534 15.9705 93.2875 16.0105C93.3217 16.0505 93.3641 16.0826 93.4119 16.1045C93.4597 16.1265 93.5117 16.1378 93.5643 16.1377H95.4425C95.5867 16.1376 95.7261 16.0861 95.8356 15.9923C95.9451 15.8985 96.0176 15.7687 96.0399 15.6263L97.1678 8.48726C97.1758 8.4354 97.1725 8.38241 97.1581 8.33195C97.1437 8.28149 97.1185 8.23475 97.0843 8.19494C97.0501 8.15512 97.0077 8.12318 96.96 8.1013C96.9123 8.07942 96.8605 8.06812 96.808 8.06818ZM93.9006 12.1278C93.7006 13.3194 92.7535 14.1194 91.5472 14.1194C90.9428 14.1194 90.4575 13.9251 90.1467 13.557C89.8384 13.1914 89.7225 12.6711 89.8193 12.0915C90.0084 10.91 90.9689 10.084 92.1567 10.084C92.749 10.084 93.2305 10.2808 93.5477 10.6521C93.8668 11.0272 93.9929 11.5508 93.9006 12.1278ZM99.2671 4.3455L97.4793 15.7193C97.4711 15.771 97.4742 15.8239 97.4884 15.8743C97.5027 15.9247 97.5276 15.9715 97.5617 16.0113C97.5957 16.0511 97.6379 16.0831 97.6855 16.1051C97.7331 16.127 97.7848 16.1383 97.8372 16.1383H99.6346C99.9333 16.1383 100.187 15.9218 100.233 15.6269L101.996 4.45823C102.004 4.40646 102.001 4.35353 101.986 4.30308C101.972 4.25263 101.947 4.20586 101.913 4.16598C101.879 4.1261 101.837 4.09405 101.789 4.07205C101.742 4.05005 101.69 4.03861 101.638 4.03851H99.625C99.5386 4.03882 99.4551 4.06988 99.3895 4.12613C99.324 4.18238 99.2805 4.26015 99.2671 4.3455Z" fill="#179BD7"/>
</svg>
