<svg width="55" height="19" viewBox="0 0 55 19" fill="none" xmlns="http://www.w3.org/2000/svg">
<path fill-rule="evenodd" clip-rule="evenodd" d="M19.3551 18.1242H23.843L26.6483 0.886445H22.16L19.3551 18.1242ZM11.3011 12.7427L15.5796 0.886445H20.4097L13.2695 18.1247H8.59352L4.69446 3.1486C2.16302 1.62835 0 1.17832 0 1.17832L0.000125848 1.17788C4.20006e-05 1.17786 0 1.17785 0 1.17785L0.0829981 0.885976H7.15627C9.10257 0.885976 9.28517 2.43804 9.28517 2.43804L10.7953 10.19C10.7953 10.19 10.7952 10.1898 10.795 10.1894L10.7953 10.1905L10.7948 10.1896L11.3011 12.7427ZM55 18.1242H50.8792L50.3535 15.5637H44.6483L43.7127 18.1242H39.0344L45.7277 2.17061C45.7277 2.17061 46.1335 0.885984 47.7995 0.885984H51.4071L55 18.1242ZM48.2988 5.57583L45.9408 12.0266H49.6254L48.2988 5.57583ZM40.0258 1.33002L39.3853 5.03173C37.4648 3.97351 33.0941 3.72313 33.0936 5.6722C33.0936 6.44651 34.0825 6.97902 35.2745 7.62085C37.0821 8.59423 39.3567 9.81904 39.3567 12.52C39.3567 16.8359 34.7365 18.4216 31.6739 18.4216C28.6122 18.4216 26.6082 17.4482 26.6082 17.4482L27.2754 13.5778C29.1129 15.0528 34.6807 15.472 34.6807 13.1328C34.6807 12.1499 33.5847 11.5702 32.3137 10.898C30.56 9.97057 28.4734 8.867 28.4734 6.285C28.4734 1.55181 33.7622 0.57843 35.9893 0.57843C38.0495 0.57843 40.0258 1.33002 40.0258 1.33002Z" fill="#E6A540"/>
</svg>
